<svg width="640" height="800" viewBox="0 0 640 800" fill="none" xmlns="http://www.w3.org/2000/svg">
<path d="M639.603 693.355L593.567 174.539C592.739 164.272 584.128 156.489 573.695 156.489H476.655C476.489 70.2132 406.276 0 320 0C233.724 0 163.511 70.2132 163.345 156.489H66.3051C56.0381 156.489 47.427 164.272 46.4334 174.539L0.39743 693.355C0.39743 694.018 0.39743 694.515 0.39743 695.177C0.39743 752.97 53.5541 800 118.799 800H521.201C586.446 800 639.603 752.97 639.603 695.177C639.603 694.515 639.603 694.018 639.603 693.355ZM320 39.7433C384.417 39.7433 436.746 92.072 436.912 156.489H203.088C203.254 92.072 255.583 39.7433 320 39.7433ZM521.201 760.091H118.799C75.7442 760.091 40.6376 731.443 40.1408 695.839L84.5208 196.233H163.345V265.949C163.345 276.879 172.287 285.821 183.217 285.821C194.146 285.821 203.088 276.879 203.088 265.949V196.233H436.912V265.949C436.912 276.879 445.854 285.821 456.783 285.821C467.713 285.821 476.655 276.879 476.655 265.949V196.233H555.479L599.859 696.005C599.362 731.443 564.256 760.091 521.201 760.091Z" fill="white"/>
</svg>
