<svg width="163" height="36" viewBox="0 0 163 36" fill="none" xmlns="http://www.w3.org/2000/svg">
<path fill-rule="evenodd" clip-rule="evenodd" d="M5.78879 9.3628C8.52913 5.86058 12.9173 3.59164 17.8633 3.59164C22.8383 3.59164 27.2488 5.88736 29.9859 9.4247C29.8693 9.53852 29.7633 9.65649 29.6672 9.7743C29.1658 10.3912 28.7886 11.1857 28.4864 11.9926C27.8779 13.6154 27.4136 15.7352 26.9839 17.7202L26.9457 17.8986C26.5168 19.88 26.1183 21.7226 25.6363 23.0905C25.4198 23.705 25.2145 24.1395 25.0324 24.4178C24.8424 24.1372 24.6268 23.6975 24.3987 23.0742C23.8832 21.667 23.4497 19.753 22.9902 17.7094L22.9752 17.6424V17.6424C22.5336 15.6794 22.0652 13.5966 21.481 12.0023C21.1876 11.2015 20.8276 10.4148 20.3567 9.80365C19.8945 9.20389 19.1252 8.527 18 8.527C16.8819 8.527 16.109 9.19654 15.6402 9.78958C15.1601 10.3968 14.7859 11.1801 14.4776 11.9814C13.8568 13.5949 13.3492 15.7056 12.8768 17.6933L12.828 17.8986C12.3603 19.8676 11.923 21.7085 11.4266 23.079C11.2371 23.6024 11.0583 24.0006 10.8965 24.285C10.7383 24.0019 10.5639 23.6064 10.3796 23.0874C9.90343 21.7461 9.48626 19.9568 9.03823 18.035L8.95979 17.6986C8.49559 15.7097 7.99196 13.5952 7.36227 11.9767C7.04942 11.1724 6.66675 10.3851 6.17157 9.77509C6.05943 9.63701 5.93201 9.49684 5.78879 9.3628ZM4.13027 12.052C4.26078 12.2968 4.39886 12.6003 4.5416 12.9673C5.08666 14.3683 5.5484 16.28 6.02389 18.3173L6.11645 18.7142C6.54936 20.5731 6.9997 22.5067 7.53016 24.0006C7.8123 24.7951 8.15302 25.5733 8.59119 26.1781C9.00557 26.7502 9.74897 27.489 10.8921 27.489C12.0318 27.489 12.777 26.7537 13.1942 26.1843C13.6361 25.5809 13.9824 24.8036 14.2702 24.0085C14.822 22.4851 15.2918 20.5061 15.7414 18.6122V18.6121L15.8102 18.3226C16.2946 16.2841 16.761 14.3686 17.302 12.9625C17.5527 12.311 17.7873 11.8572 17.9916 11.5757C18.1852 11.8548 18.4064 12.3014 18.6411 12.9417C19.1566 14.3489 19.5897 16.2628 20.0494 18.3065L20.0644 18.3734C20.506 20.3365 20.9744 22.4193 21.5585 24.0134C21.852 24.8146 22.212 25.6012 22.6829 26.2122C23.1452 26.8121 23.9144 27.489 25.0394 27.489C26.1704 27.489 26.9368 26.8059 27.3936 26.2007C27.8574 25.5866 28.2061 24.7974 28.4879 23.9975C29.0293 22.4611 29.4598 20.4676 29.8704 18.5711V18.571L29.9292 18.2957C30.3712 16.2545 30.7954 14.3481 31.3194 12.9513C31.4328 12.6475 31.5446 12.3884 31.6512 12.1708C32.4539 13.9188 32.8991 15.849 32.8991 17.878C32.8991 25.768 26.1676 32.1644 17.8633 32.1644C9.55913 32.1644 2.82727 25.768 2.82727 17.878C2.82727 15.8029 3.29289 13.8311 4.13027 12.052ZM17.8633 0.734375C7.89829 0.734375 -0.179932 8.40982 -0.179932 17.878C-0.179932 27.3461 7.89829 35.0215 17.8633 35.0215C27.8285 35.0215 35.9063 27.3461 35.9063 17.878C35.9063 8.40982 27.8285 0.734375 17.8633 0.734375ZM18.207 11.3365C18.207 11.3369 18.2035 11.3395 18.1965 11.3434C18.2035 11.3381 18.207 11.3362 18.207 11.3365ZM17.7914 11.3384C17.7844 11.3344 17.7809 11.3316 17.7809 11.3312C17.7809 11.3309 17.7845 11.3329 17.7914 11.3384ZM24.8107 24.689C24.8107 24.689 24.814 24.6859 24.8205 24.6819C24.814 24.6872 24.8107 24.6894 24.8107 24.689ZM25.248 24.6775C25.255 24.6815 25.2587 24.6841 25.2587 24.6846C25.2587 24.685 25.255 24.6828 25.248 24.6775ZM10.5839 24.7146C10.5838 24.7142 10.5882 24.7102 10.5968 24.7045C10.5882 24.712 10.5839 24.7151 10.5839 24.7146ZM11.1929 24.7071C11.2015 24.7129 11.2058 24.7169 11.2058 24.7173C11.2057 24.7177 11.2014 24.7151 11.1929 24.7071Z" fill="#81818B"/>
<path d="M45.8692 28.0274L41.4939 13.8068H45.3264L47.9215 24.0421L50.9386 13.8068H55.2237L58.2414 24.0421L60.8664 13.8068H64.6989L60.2931 28.0274H56.28L53.0812 17.3906L49.8829 28.0274H45.8692Z" fill="#81818B"/>
<path d="M70.3222 28.3716C69.0349 28.3716 67.9786 28.18 67.1538 27.7978C66.3296 27.3965 65.7159 26.871 65.3132 26.2211C64.911 25.5711 64.71 24.8544 64.71 24.0709C64.71 22.7521 65.2528 21.6816 66.339 20.8598C67.4253 20.0379 69.0554 19.6269 71.2278 19.6269H75.0299V19.2829C75.0299 18.308 74.738 17.5913 74.1547 17.1326C73.5714 16.6738 72.8469 16.4445 71.9823 16.4445C71.1974 16.4445 70.5133 16.6261 69.93 16.9892C69.3468 17.3333 68.9845 17.8494 68.8438 18.5374H65.0717C65.1725 17.5053 65.5347 16.6069 66.1579 15.8424C66.8021 15.0779 67.6269 14.4949 68.6322 14.0935C69.6387 13.673 70.7648 13.4628 72.0122 13.4628C74.1447 13.4628 75.8242 13.9692 77.0517 14.9823C78.2786 15.9953 78.8923 17.4289 78.8923 19.2829V28.0274H75.6027L75.2409 25.7339C74.7984 26.4984 74.1747 27.1289 73.3704 27.6262C72.5855 28.123 71.5696 28.3716 70.3222 28.3716ZM71.1974 25.5043C72.3041 25.5043 73.1588 25.1601 73.762 24.4722C74.3857 23.7842 74.7784 22.9335 74.9396 21.9205H71.6499C70.6241 21.9205 69.8901 22.1021 69.447 22.4653C69.005 22.8091 68.7834 23.2396 68.7834 23.7554C68.7834 24.3098 69.005 24.7398 69.447 25.0455C69.8901 25.3512 70.4729 25.5043 71.1974 25.5043Z" fill="#81818B"/>
<path d="M84.9723 28.0274L79.4808 13.8068H83.5239L87.3259 24.5584L91.128 13.8068H95.1715L89.6496 28.0274H84.9723Z" fill="#81818B"/>
<path d="M102.936 28.3716C101.427 28.3716 100.09 28.0655 98.9226 27.454C97.756 26.8422 96.8409 25.9821 96.1768 24.8734C95.5127 23.7652 95.1814 22.4844 95.1814 21.0317C95.1814 19.56 95.5032 18.2507 96.1464 17.1039C96.8105 15.9571 97.7156 15.0683 98.8627 14.4375C100.029 13.7877 101.397 13.4628 102.966 13.4628C104.435 13.4628 105.732 13.7686 106.859 14.3802C107.985 14.9918 108.861 15.8328 109.484 16.9032C110.128 17.9545 110.45 19.1299 110.45 20.4297C110.45 20.6399 110.439 20.8598 110.42 21.0891C110.42 21.3185 110.409 21.5574 110.389 21.8059H99.0134C99.0937 22.9144 99.4964 23.7842 100.22 24.4151C100.964 25.0455 101.86 25.361 102.906 25.361C103.69 25.361 104.344 25.1986 104.867 24.8734C105.41 24.5297 105.813 24.0899 106.074 23.5546H109.997C109.715 24.4531 109.242 25.2752 108.579 26.0206C107.935 26.7466 107.13 27.32 106.164 27.7407C105.219 28.161 104.143 28.3716 102.936 28.3716ZM102.966 16.4445C102.021 16.4445 101.186 16.7025 100.461 17.2186C99.7374 17.7155 99.2748 18.4801 99.0732 19.5122H106.527C106.466 18.5756 106.105 17.8302 105.44 17.2759C104.776 16.7217 103.952 16.4445 102.966 16.4445Z" fill="#81818B"/>
<path d="M112.491 28.0274V7.38452H116.354V28.0274H112.491Z" fill="#81818B"/>
<path d="M126.365 28.3716C124.857 28.3716 123.519 28.0655 122.352 27.454C121.185 26.8422 120.27 25.9821 119.606 24.8734C118.942 23.7652 118.611 22.4844 118.611 21.0317C118.611 19.56 118.932 18.2507 119.576 17.1039C120.24 15.9571 121.145 15.0683 122.292 14.4375C123.458 13.7877 124.826 13.4628 126.395 13.4628C127.864 13.4628 129.162 13.7686 130.288 14.3802C131.414 14.9918 132.29 15.8328 132.913 16.9032C133.557 17.9545 133.879 19.1299 133.879 20.4297C133.879 20.6399 133.869 20.8598 133.849 21.0891C133.849 21.3185 133.838 21.5574 133.818 21.8059H122.443C122.523 22.9144 122.926 23.7842 123.65 24.4151C124.393 25.0455 125.289 25.361 126.335 25.361C127.119 25.361 127.773 25.1986 128.296 24.8734C128.84 24.5297 129.242 24.0899 129.503 23.5546H133.427C133.145 24.4531 132.672 25.2752 132.008 26.0206C131.364 26.7466 130.56 27.32 129.594 27.7407C128.649 28.161 127.572 28.3716 126.365 28.3716ZM126.395 16.4445C125.45 16.4445 124.615 16.7025 123.891 17.2186C123.167 17.7155 122.704 18.4801 122.502 19.5122H129.956C129.895 18.5756 129.534 17.8302 128.87 17.2759C128.205 16.7217 127.381 16.4445 126.395 16.4445Z" fill="#81818B"/>
<path d="M142.106 28.3716C140.779 28.3716 139.612 28.1707 138.606 27.7695C137.6 27.3488 136.795 26.7754 136.192 26.0489C135.589 25.3229 135.226 24.4819 135.106 23.5263H138.998C139.119 24.0802 139.441 24.5584 139.964 24.9597C140.507 25.3419 141.201 25.5331 142.046 25.5331C142.891 25.5331 143.505 25.3707 143.886 25.0455C144.289 24.7208 144.49 24.3479 144.49 23.9275C144.49 23.3157 144.209 22.9047 143.645 22.6945C143.082 22.4653 142.297 22.2455 141.291 22.0352C140.648 21.9014 139.994 21.739 139.33 21.5478C138.666 21.3567 138.053 21.1177 137.49 20.8311C136.946 20.5252 136.504 20.143 136.161 19.6842C135.82 19.2064 135.649 18.6234 135.649 17.9353C135.649 16.6738 136.172 15.6131 137.218 14.753C138.284 13.8928 139.772 13.4628 141.684 13.4628C143.454 13.4628 144.862 13.8546 145.908 14.6382C146.974 15.4219 147.608 16.5018 147.81 17.878H144.158C143.937 16.8268 143.102 16.3011 141.654 16.3011C140.929 16.3011 140.366 16.435 139.964 16.7025C139.582 16.9701 139.391 17.3046 139.391 17.706C139.391 18.1265 139.682 18.461 140.266 18.7095C140.849 18.9579 141.623 19.1873 142.589 19.3976C143.635 19.6269 144.59 19.8849 145.455 20.1716C146.341 20.4392 147.045 20.8502 147.568 21.4045C148.091 21.9396 148.352 22.7136 148.352 23.7267C148.373 24.6062 148.131 25.399 147.628 26.1065C147.125 26.8134 146.402 27.3678 145.455 27.7695C144.51 28.1707 143.394 28.3716 142.106 28.3716Z" fill="#81818B"/>
<path d="M156.753 28.3716C155.425 28.3716 154.258 28.1707 153.253 27.7695C152.247 27.3488 151.442 26.7754 150.839 26.0489C150.235 25.3229 149.873 24.4819 149.753 23.5263H153.645C153.766 24.0802 154.087 24.5584 154.61 24.9597C155.154 25.3419 155.847 25.5331 156.693 25.5331C157.537 25.5331 158.151 25.3707 158.533 25.0455C158.935 24.7208 159.137 24.3479 159.137 23.9275C159.137 23.3157 158.855 22.9047 158.292 22.6945C157.729 22.4653 156.944 22.2455 155.938 22.0352C155.294 21.9014 154.641 21.739 153.977 21.5478C153.313 21.3567 152.699 21.1177 152.136 20.8311C151.593 20.5252 151.15 20.143 150.808 19.6842C150.466 19.2064 150.295 18.6234 150.295 17.9353C150.295 16.6738 150.819 15.6131 151.865 14.753C152.931 13.8928 154.419 13.4628 156.33 13.4628C158.101 13.4628 159.509 13.8546 160.555 14.6382C161.621 15.4219 162.254 16.5018 162.456 17.878H158.805C158.584 16.8268 157.749 16.3011 156.3 16.3011C155.576 16.3011 155.013 16.435 154.61 16.7025C154.228 16.9701 154.037 17.3046 154.037 17.706C154.037 18.1265 154.328 18.461 154.912 18.7095C155.496 18.9579 156.27 19.1873 157.235 19.3976C158.282 19.6269 159.237 19.8849 160.102 20.1716C160.988 20.4392 161.692 20.8502 162.214 21.4045C162.737 21.9396 162.999 22.7136 162.999 23.7267C163.019 24.6062 162.778 25.399 162.275 26.1065C161.772 26.8134 161.048 27.3678 160.102 27.7695C159.157 28.1707 158.04 28.3716 156.753 28.3716Z" fill="#81818B"/>
</svg>
