<svg width="168" height="38" viewBox="0 0 168 38" fill="none" xmlns="http://www.w3.org/2000/svg">
<g filter="url(#filter0_d_45_54)">
<path d="M8.87562 3.29559C11.0298 1.33372 13.9549 0.188585 16.9195 0.0461529C17.9342 0.0461529 18.9518 0.0519279 19.9665 0.0432129C19.9147 1.08088 19.9665 2.12137 19.936 3.15898C19.7928 5.47838 18.8939 7.74544 17.3796 9.56488C15.4113 12.0122 12.4009 13.6543 9.20469 14.0787C7.80919 14.2938 6.39232 14.1572 4.98774 14.195C5.0121 13.0527 4.93592 11.9076 5.03037 10.7682C5.30463 7.9431 6.70317 5.23714 8.87562 3.29559Z" fill="#81818B"/>
</g>
<g filter="url(#filter1_d_45_54)">
<path d="M20.9061 0.0432129C21.9939 0.0548679 23.0816 0.0374383 24.1724 0.0490408C26.8872 0.232108 29.5655 1.22614 31.6098 2.94977C33.8645 4.79536 35.4096 7.43448 35.8054 10.2538C35.9792 11.5617 35.8695 12.8841 35.9367 14.1978C34.9859 14.195 34.0383 14.1921 33.0875 14.1978C30.7507 14.1368 28.4533 13.416 26.4972 12.2011C25.5953 11.5849 24.669 10.9601 23.9926 10.1055C22.5088 8.52438 21.5002 6.53925 21.1194 4.4466C20.8329 2.99329 20.9487 1.51101 20.9061 0.0432129Z" fill="#81818B"/>
</g>
<g filter="url(#filter2_d_45_54)">
<path d="M4.98978 15.0291C5.95567 15.0813 6.92461 14.9854 7.88741 15.0872C12.0099 15.1714 16.0106 17.3804 18.1464 20.7432C19.3714 22.6266 20.0295 24.8589 19.9442 27.0763C19.9411 27.8035 19.9533 28.5269 19.932 29.2509C18.4024 29.2068 16.8576 29.326 15.3432 29.044C11.9795 28.5038 8.88685 26.5939 7.0251 23.8677C5.61437 21.8854 4.91055 19.4644 4.98369 17.0723C4.98369 16.3892 4.98369 15.7091 4.98978 15.0291Z" fill="#81818B"/>
</g>
<g filter="url(#filter3_d_45_54)">
<path d="M30.7884 15.337C32.446 14.9853 34.1548 15.0434 35.8401 15.0434L35.9136 15.1132C35.8768 16.6333 36.0018 18.1708 35.6821 19.6735C35.0085 23.045 32.6686 26.0559 29.5209 27.7097C27.5617 28.7506 25.3131 29.2619 23.0736 29.2388C22.3576 29.242 21.6385 29.2273 20.9225 29.2472C20.9225 27.9888 20.8676 26.7248 21.0169 25.4717C21.3643 22.4404 23.0827 19.6182 25.5538 17.7116C27.0833 16.5606 28.8811 15.7265 30.7884 15.337Z" fill="#81818B"/>
</g>
<g filter="url(#filter4_d_45_54)">
<path d="M48.4217 23.6211C48.4217 24.1328 48.2359 24.5657 47.8652 24.92C47.514 25.2547 47.0704 25.422 46.5344 25.422C46.0183 25.422 45.5852 25.2547 45.2345 24.92C44.8838 24.5657 44.7084 24.1328 44.7084 23.6211V5.37753C44.7084 4.86582 44.8838 4.44272 45.2345 4.10819C45.6056 3.75392 46.0598 3.57678 46.5963 3.57678C47.1323 3.57678 47.5654 3.75392 47.8957 4.10819C48.2464 4.44272 48.4217 4.86582 48.4217 5.37753V23.6211Z" fill="#81818B"/>
</g>
<g filter="url(#filter5_d_45_54)">
<path d="M63.3275 9.62842C63.8636 9.62842 64.3072 9.8055 64.6584 10.1598C65.0086 10.4943 65.1839 10.9174 65.1839 11.4291V18.9273C65.1839 21.0134 64.5754 22.6665 63.3585 23.8867C62.141 25.1069 60.3875 25.7168 58.0969 25.7168C55.8074 25.7168 54.0534 25.1069 52.8365 23.8867C51.64 22.6665 51.0415 21.0134 51.0415 18.9273V11.4291C51.0415 10.9174 51.2168 10.4943 51.5675 10.1598C51.9182 9.8055 52.3618 9.62842 52.8984 9.62842C53.4349 9.62842 53.878 9.8055 54.2287 10.1598C54.58 10.4943 54.7553 10.9174 54.7553 11.4291V18.9273C54.7553 20.1278 55.0341 21.0232 55.5906 21.6136C56.1476 22.1844 56.9834 22.4697 58.0969 22.4697C59.2325 22.4697 60.0778 22.1844 60.6353 21.6136C61.1918 21.0232 61.4706 20.1278 61.4706 18.9273V11.4291C61.4706 10.9174 61.646 10.4943 61.9967 10.1598C62.3474 9.8055 62.791 9.62842 63.3275 9.62842Z" fill="#81818B"/>
</g>
<g filter="url(#filter6_d_45_54)">
<path d="M76.3533 9.33325C78.0039 9.33325 79.2208 9.71698 80.0052 10.4845C80.789 11.2324 81.3051 12.2065 81.5524 13.407L81.0263 13.1413L81.2741 12.669C81.5214 12.2163 81.9031 11.7342 82.4191 11.2225C82.9347 10.6912 83.5537 10.2484 84.2756 9.89411C85.0184 9.52015 85.8437 9.33325 86.7514 9.33325C88.2372 9.33325 89.3612 9.63828 90.1246 10.2483C90.9089 10.8584 91.4449 11.6752 91.7337 12.6986C92.023 13.7022 92.1674 14.824 92.1674 16.0639V23.6211C92.1674 24.1328 91.992 24.5656 91.6408 24.92C91.2901 25.2547 90.847 25.422 90.3104 25.422C89.7744 25.422 89.3302 25.2547 88.9795 24.92C88.6288 24.5656 88.4535 24.1328 88.4535 23.6211V16.0639C88.4535 15.4144 88.3711 14.8339 88.2062 14.3221C88.0409 13.7908 87.7416 13.3677 87.3085 13.0528C86.8753 12.7379 86.2564 12.5804 85.4521 12.5804C84.6677 12.5804 83.9973 12.7379 83.4403 13.0528C82.8827 13.3677 82.4601 13.7908 82.1713 14.3221C81.9031 14.8339 81.7687 15.4144 81.7687 16.0639V23.6211C81.7687 24.1328 81.5933 24.5656 81.2431 24.92C80.8925 25.2547 80.4483 25.422 79.9123 25.422C79.3757 25.422 78.9321 25.2547 78.5819 24.92C78.2307 24.5656 78.0553 24.1328 78.0553 23.6211V16.0639C78.0553 15.4144 77.9729 14.8339 77.8075 14.3221C77.6427 13.7908 77.3434 13.3677 76.9103 13.0528C76.4772 12.7379 75.8577 12.5804 75.0534 12.5804C74.2696 12.5804 73.5991 12.7379 73.0416 13.0528C72.4851 13.3677 72.0619 13.7908 71.7732 14.3221C71.5049 14.8339 71.371 15.4144 71.371 16.0639V23.6211C71.371 24.1328 71.1957 24.5656 70.845 24.92C70.4938 25.2547 70.0507 25.422 69.5141 25.422C68.9776 25.422 68.5345 25.2547 68.1832 24.92C67.8325 24.5656 67.6572 24.1328 67.6572 23.6211V11.4292C67.6572 10.9175 67.8325 10.4943 68.1832 10.1598C68.5345 9.80554 68.9776 9.62846 69.5141 9.62846C70.0507 9.62846 70.4938 9.80554 70.845 10.1598C71.1957 10.4943 71.371 10.9175 71.371 11.4292V12.6986L70.9064 12.61C71.0923 12.2754 71.3506 11.9211 71.6803 11.5472C72.0105 11.1536 72.4126 10.7895 72.8872 10.455C73.3618 10.1204 73.8879 9.85473 74.4654 9.65791C75.0434 9.44145 75.6729 9.33325 76.3533 9.33325Z" fill="#81818B"/>
</g>
<g filter="url(#filter7_d_45_54)">
<path d="M98.1361 23.6211C98.1361 24.1328 97.9607 24.5656 97.6095 24.92C97.2593 25.2547 96.8157 25.422 96.2791 25.422C95.7431 25.422 95.299 25.2547 94.9483 24.92C94.5981 24.5656 94.4227 24.1328 94.4227 23.6211V11.4292C94.4227 10.9175 94.5981 10.4943 94.9483 10.1598C95.299 9.80555 95.7431 9.62846 96.2791 9.62846C96.8157 9.62846 97.2593 9.80555 97.6095 10.1598C97.9607 10.4943 98.1361 10.9175 98.1361 11.4292V23.6211ZM96.2482 7.70959C95.5468 7.70959 95.0517 7.60139 94.7624 7.38488C94.4742 7.16842 94.3298 6.78464 94.3298 6.2336V5.67269C94.3298 5.10202 94.4847 4.71819 94.7934 4.52142C95.1236 4.30491 95.6192 4.19666 96.2791 4.19666C97.0015 4.19666 97.5071 4.30491 97.7953 4.52142C98.0846 4.73788 98.229 5.12165 98.229 5.67269V6.2336C98.229 6.80433 98.0741 7.19792 97.7644 7.41438C97.4557 7.6112 96.9496 7.70959 96.2482 7.70959Z" fill="#81818B"/>
</g>
<g filter="url(#filter8_d_45_54)">
<path d="M109.256 9.33325C110.783 9.33325 111.938 9.63828 112.722 10.2483C113.527 10.8584 114.073 11.6752 114.362 12.6986C114.672 13.7022 114.826 14.824 114.826 16.0639V23.6211C114.826 24.1328 114.651 24.5656 114.3 24.92C113.95 25.2547 113.506 25.422 112.969 25.422C112.433 25.422 111.99 25.2547 111.639 24.92C111.288 24.5656 111.112 24.1328 111.112 23.6211V16.0639C111.112 15.4144 111.02 14.8339 110.835 14.3221C110.669 13.7908 110.36 13.3677 109.906 13.0528C109.452 12.7379 108.802 12.5804 107.956 12.5804C107.131 12.5804 106.429 12.7379 105.852 13.0528C105.295 13.3677 104.862 13.7908 104.552 14.3221C104.263 14.8339 104.118 15.4144 104.118 16.0639V23.6211C104.118 24.1328 103.944 24.5656 103.593 24.92C103.242 25.2547 102.798 25.422 102.262 25.422C101.725 25.422 101.282 25.2547 100.932 24.92C100.58 24.5656 100.405 24.1328 100.405 23.6211V11.4292C100.405 10.9175 100.58 10.4943 100.932 10.1598C101.282 9.80554 101.725 9.62846 102.262 9.62846C102.798 9.62846 103.242 9.80554 103.593 10.1598C103.944 10.4943 104.118 10.9175 104.118 11.4292V12.6986L103.655 12.61C103.841 12.2754 104.108 11.9211 104.459 11.5472C104.81 11.1536 105.223 10.7895 105.697 10.455C106.172 10.1204 106.708 9.85473 107.306 9.65791C107.905 9.44145 108.555 9.33325 109.256 9.33325Z" fill="#81818B"/>
</g>
<g filter="url(#filter9_d_45_54)">
<path d="M133.2 17.5398C133.2 19.1536 132.818 20.5805 132.055 21.8203C131.312 23.0405 130.301 23.995 129.022 24.6837C127.763 25.3728 126.35 25.7168 124.782 25.7168C123.214 25.7168 121.79 25.3728 120.512 24.6837C119.253 23.995 118.242 23.0405 117.479 21.8203C116.736 20.5805 116.365 19.1536 116.365 17.5398C116.365 15.9261 116.736 14.5091 117.479 13.2889C118.242 12.0491 119.253 11.0848 120.512 10.396C121.79 9.68747 123.214 9.33325 124.782 9.33325C126.35 9.33325 127.763 9.68747 129.022 10.396C130.301 11.0848 131.312 12.0491 132.055 13.2889C132.818 14.5091 133.2 15.9261 133.2 17.5398ZM129.486 17.5398C129.486 16.5362 129.27 15.6703 128.836 14.9421C128.423 14.1942 127.856 13.6137 127.134 13.2004C126.433 12.7871 125.649 12.5804 124.782 12.5804C123.916 12.5804 123.121 12.7871 122.399 13.2004C121.698 13.6137 121.13 14.1942 120.697 14.9421C120.285 15.6703 120.078 16.5362 120.078 17.5398C120.078 18.5239 120.285 19.3898 120.697 20.1377C121.13 20.8658 121.698 21.4365 122.399 21.8498C123.121 22.2632 123.916 22.4697 124.782 22.4697C125.649 22.4697 126.433 22.2632 127.134 21.8498C127.856 21.4365 128.423 20.8658 128.836 20.1377C129.27 19.3898 129.486 18.5239 129.486 17.5398Z" fill="#81818B"/>
</g>
<g filter="url(#filter10_d_45_54)">
<path d="M147.041 9.62842C147.577 9.62842 148.021 9.8055 148.372 10.1598C148.722 10.4943 148.898 10.9174 148.898 11.4291V18.9273C148.898 21.0134 148.289 22.6665 147.072 23.8867C145.854 25.1069 144.101 25.7168 141.811 25.7168C139.521 25.7168 137.767 25.1069 136.55 23.8867C135.353 22.6665 134.755 21.0134 134.755 18.9273V11.4291C134.755 10.9174 134.93 10.4943 135.281 10.1598C135.632 9.8055 136.075 9.62842 136.612 9.62842C137.148 9.62842 137.592 9.8055 137.943 10.1598C138.293 10.4943 138.469 10.9174 138.469 11.4291V18.9273C138.469 20.1278 138.747 21.0232 139.304 21.6136C139.861 22.1844 140.697 22.4697 141.811 22.4697C142.945 22.4697 143.792 22.1844 144.348 21.6136C144.906 21.0232 145.184 20.1278 145.184 18.9273V11.4291C145.184 10.9174 145.36 10.4943 145.71 10.1598C146.061 9.8055 146.505 9.62842 147.041 9.62842Z" fill="#81818B"/>
</g>
<g filter="url(#filter11_d_45_54)">
<path d="M150.411 22.9716C150.205 22.6961 150.112 22.3419 150.133 21.9089C150.154 21.4759 150.422 21.102 150.938 20.7871C151.268 20.5903 151.618 20.5116 151.99 20.551C152.361 20.5707 152.722 20.7477 153.073 21.0823C153.672 21.653 154.301 22.0958 154.961 22.4107C155.621 22.7256 156.446 22.883 157.436 22.883C157.746 22.8633 158.086 22.824 158.458 22.765C158.829 22.6863 159.149 22.5288 159.417 22.2927C159.705 22.0368 159.85 21.653 159.85 21.1413C159.85 20.7084 159.695 20.364 159.386 20.1081C159.076 19.8523 158.664 19.6359 158.148 19.4587C157.653 19.2816 157.096 19.1143 156.477 18.9569C155.837 18.7797 155.177 18.583 154.496 18.3665C153.836 18.15 153.227 17.8745 152.67 17.5398C152.114 17.1856 151.66 16.7232 151.309 16.1524C150.958 15.5817 150.783 14.8633 150.783 13.9975C150.783 13.0134 151.071 12.177 151.649 11.4882C152.227 10.7994 152.97 10.2681 153.877 9.89411C154.806 9.52015 155.775 9.33325 156.786 9.33325C157.426 9.33325 158.096 9.41195 158.798 9.5694C159.499 9.70716 160.17 9.9433 160.81 10.2779C161.449 10.5927 161.986 11.0159 162.419 11.5472C162.645 11.8424 162.78 12.1967 162.821 12.61C162.862 13.0233 162.666 13.3972 162.233 13.7318C161.924 13.9679 161.563 14.0762 161.15 14.0565C160.738 14.0171 160.397 13.8794 160.129 13.6432C159.778 13.2102 159.304 12.8658 158.705 12.61C158.127 12.3542 157.457 12.2262 156.694 12.2262C156.384 12.2262 156.044 12.2656 155.672 12.3443C155.322 12.4033 155.012 12.551 154.744 12.7871C154.476 13.0036 154.342 13.3578 154.342 13.8498C154.342 14.3025 154.496 14.6666 154.806 14.9421C155.115 15.1979 155.528 15.4144 156.044 15.5916C156.58 15.749 157.148 15.9065 157.746 16.0639C158.365 16.2213 158.994 16.4083 159.634 16.6247C160.274 16.8413 160.861 17.1266 161.398 17.4808C161.934 17.8351 162.367 18.2976 162.697 18.8683C163.028 19.4193 163.192 20.1278 163.192 20.9938C163.192 21.9975 162.883 22.8536 162.264 23.562C161.645 24.2706 160.871 24.8117 159.943 25.1857C159.015 25.5401 158.065 25.7168 157.096 25.7168C155.879 25.7168 154.662 25.5204 153.444 25.1267C152.227 24.7132 151.216 23.995 150.411 22.9716Z" fill="#81818B"/>
</g>
<defs>
<filter id="filter0_d_45_54" x="0.981552" y="0.0432129" width="22.985" height="22.1603" filterUnits="userSpaceOnUse" color-interpolation-filters="sRGB">
<feFlood flood-opacity="0" result="BackgroundImageFix"/>
<feColorMatrix in="SourceAlpha" type="matrix" values="0 0 0 0 0 0 0 0 0 0 0 0 0 0 0 0 0 0 127 0" result="hardAlpha"/>
<feOffset dy="4"/>
<feGaussianBlur stdDeviation="2"/>
<feComposite in2="hardAlpha" operator="out"/>
<feColorMatrix type="matrix" values="0 0 0 0 0 0 0 0 0 0 0 0 0 0 0 0 0 0 0.25 0"/>
<feBlend mode="normal" in2="BackgroundImageFix" result="effect1_dropShadow_45_54"/>
<feBlend mode="normal" in="SourceGraphic" in2="effect1_dropShadow_45_54" result="shape"/>
</filter>
<filter id="filter1_d_45_54" x="16.9061" y="0.0432129" width="23.0306" height="22.1547" filterUnits="userSpaceOnUse" color-interpolation-filters="sRGB">
<feFlood flood-opacity="0" result="BackgroundImageFix"/>
<feColorMatrix in="SourceAlpha" type="matrix" values="0 0 0 0 0 0 0 0 0 0 0 0 0 0 0 0 0 0 127 0" result="hardAlpha"/>
<feOffset dy="4"/>
<feGaussianBlur stdDeviation="2"/>
<feComposite in2="hardAlpha" operator="out"/>
<feColorMatrix type="matrix" values="0 0 0 0 0 0 0 0 0 0 0 0 0 0 0 0 0 0 0.25 0"/>
<feBlend mode="normal" in2="BackgroundImageFix" result="effect1_dropShadow_45_54"/>
<feBlend mode="normal" in="SourceGraphic" in2="effect1_dropShadow_45_54" result="shape"/>
</filter>
<filter id="filter2_d_45_54" x="0.978516" y="15.0291" width="22.973" height="22.2218" filterUnits="userSpaceOnUse" color-interpolation-filters="sRGB">
<feFlood flood-opacity="0" result="BackgroundImageFix"/>
<feColorMatrix in="SourceAlpha" type="matrix" values="0 0 0 0 0 0 0 0 0 0 0 0 0 0 0 0 0 0 127 0" result="hardAlpha"/>
<feOffset dy="4"/>
<feGaussianBlur stdDeviation="2"/>
<feComposite in2="hardAlpha" operator="out"/>
<feColorMatrix type="matrix" values="0 0 0 0 0 0 0 0 0 0 0 0 0 0 0 0 0 0 0.25 0"/>
<feBlend mode="normal" in2="BackgroundImageFix" result="effect1_dropShadow_45_54"/>
<feBlend mode="normal" in="SourceGraphic" in2="effect1_dropShadow_45_54" result="shape"/>
</filter>
<filter id="filter3_d_45_54" x="16.9126" y="15.0398" width="23.001" height="22.2074" filterUnits="userSpaceOnUse" color-interpolation-filters="sRGB">
<feFlood flood-opacity="0" result="BackgroundImageFix"/>
<feColorMatrix in="SourceAlpha" type="matrix" values="0 0 0 0 0 0 0 0 0 0 0 0 0 0 0 0 0 0 127 0" result="hardAlpha"/>
<feOffset dy="4"/>
<feGaussianBlur stdDeviation="2"/>
<feComposite in2="hardAlpha" operator="out"/>
<feColorMatrix type="matrix" values="0 0 0 0 0 0 0 0 0 0 0 0 0 0 0 0 0 0 0.25 0"/>
<feBlend mode="normal" in2="BackgroundImageFix" result="effect1_dropShadow_45_54"/>
<feBlend mode="normal" in="SourceGraphic" in2="effect1_dropShadow_45_54" result="shape"/>
</filter>
<filter id="filter4_d_45_54" x="40.7084" y="3.57678" width="11.7133" height="29.8452" filterUnits="userSpaceOnUse" color-interpolation-filters="sRGB">
<feFlood flood-opacity="0" result="BackgroundImageFix"/>
<feColorMatrix in="SourceAlpha" type="matrix" values="0 0 0 0 0 0 0 0 0 0 0 0 0 0 0 0 0 0 127 0" result="hardAlpha"/>
<feOffset dy="4"/>
<feGaussianBlur stdDeviation="2"/>
<feComposite in2="hardAlpha" operator="out"/>
<feColorMatrix type="matrix" values="0 0 0 0 0 0 0 0 0 0 0 0 0 0 0 0 0 0 0.25 0"/>
<feBlend mode="normal" in2="BackgroundImageFix" result="effect1_dropShadow_45_54"/>
<feBlend mode="normal" in="SourceGraphic" in2="effect1_dropShadow_45_54" result="shape"/>
</filter>
<filter id="filter5_d_45_54" x="47.0415" y="9.62842" width="22.1425" height="24.0884" filterUnits="userSpaceOnUse" color-interpolation-filters="sRGB">
<feFlood flood-opacity="0" result="BackgroundImageFix"/>
<feColorMatrix in="SourceAlpha" type="matrix" values="0 0 0 0 0 0 0 0 0 0 0 0 0 0 0 0 0 0 127 0" result="hardAlpha"/>
<feOffset dy="4"/>
<feGaussianBlur stdDeviation="2"/>
<feComposite in2="hardAlpha" operator="out"/>
<feColorMatrix type="matrix" values="0 0 0 0 0 0 0 0 0 0 0 0 0 0 0 0 0 0 0.25 0"/>
<feBlend mode="normal" in2="BackgroundImageFix" result="effect1_dropShadow_45_54"/>
<feBlend mode="normal" in="SourceGraphic" in2="effect1_dropShadow_45_54" result="shape"/>
</filter>
<filter id="filter6_d_45_54" x="63.6572" y="9.33325" width="32.5102" height="24.0887" filterUnits="userSpaceOnUse" color-interpolation-filters="sRGB">
<feFlood flood-opacity="0" result="BackgroundImageFix"/>
<feColorMatrix in="SourceAlpha" type="matrix" values="0 0 0 0 0 0 0 0 0 0 0 0 0 0 0 0 0 0 127 0" result="hardAlpha"/>
<feOffset dy="4"/>
<feGaussianBlur stdDeviation="2"/>
<feComposite in2="hardAlpha" operator="out"/>
<feColorMatrix type="matrix" values="0 0 0 0 0 0 0 0 0 0 0 0 0 0 0 0 0 0 0.25 0"/>
<feBlend mode="normal" in2="BackgroundImageFix" result="effect1_dropShadow_45_54"/>
<feBlend mode="normal" in="SourceGraphic" in2="effect1_dropShadow_45_54" result="shape"/>
</filter>
<filter id="filter7_d_45_54" x="90.3298" y="4.19666" width="11.8992" height="29.2253" filterUnits="userSpaceOnUse" color-interpolation-filters="sRGB">
<feFlood flood-opacity="0" result="BackgroundImageFix"/>
<feColorMatrix in="SourceAlpha" type="matrix" values="0 0 0 0 0 0 0 0 0 0 0 0 0 0 0 0 0 0 127 0" result="hardAlpha"/>
<feOffset dy="4"/>
<feGaussianBlur stdDeviation="2"/>
<feComposite in2="hardAlpha" operator="out"/>
<feColorMatrix type="matrix" values="0 0 0 0 0 0 0 0 0 0 0 0 0 0 0 0 0 0 0.25 0"/>
<feBlend mode="normal" in2="BackgroundImageFix" result="effect1_dropShadow_45_54"/>
<feBlend mode="normal" in="SourceGraphic" in2="effect1_dropShadow_45_54" result="shape"/>
</filter>
<filter id="filter8_d_45_54" x="96.4051" y="9.33325" width="22.4212" height="24.0887" filterUnits="userSpaceOnUse" color-interpolation-filters="sRGB">
<feFlood flood-opacity="0" result="BackgroundImageFix"/>
<feColorMatrix in="SourceAlpha" type="matrix" values="0 0 0 0 0 0 0 0 0 0 0 0 0 0 0 0 0 0 127 0" result="hardAlpha"/>
<feOffset dy="4"/>
<feGaussianBlur stdDeviation="2"/>
<feComposite in2="hardAlpha" operator="out"/>
<feColorMatrix type="matrix" values="0 0 0 0 0 0 0 0 0 0 0 0 0 0 0 0 0 0 0.25 0"/>
<feBlend mode="normal" in2="BackgroundImageFix" result="effect1_dropShadow_45_54"/>
<feBlend mode="normal" in="SourceGraphic" in2="effect1_dropShadow_45_54" result="shape"/>
</filter>
<filter id="filter9_d_45_54" x="112.365" y="9.33325" width="24.8352" height="24.3835" filterUnits="userSpaceOnUse" color-interpolation-filters="sRGB">
<feFlood flood-opacity="0" result="BackgroundImageFix"/>
<feColorMatrix in="SourceAlpha" type="matrix" values="0 0 0 0 0 0 0 0 0 0 0 0 0 0 0 0 0 0 127 0" result="hardAlpha"/>
<feOffset dy="4"/>
<feGaussianBlur stdDeviation="2"/>
<feComposite in2="hardAlpha" operator="out"/>
<feColorMatrix type="matrix" values="0 0 0 0 0 0 0 0 0 0 0 0 0 0 0 0 0 0 0.25 0"/>
<feBlend mode="normal" in2="BackgroundImageFix" result="effect1_dropShadow_45_54"/>
<feBlend mode="normal" in="SourceGraphic" in2="effect1_dropShadow_45_54" result="shape"/>
</filter>
<filter id="filter10_d_45_54" x="130.755" y="9.62842" width="22.143" height="24.0884" filterUnits="userSpaceOnUse" color-interpolation-filters="sRGB">
<feFlood flood-opacity="0" result="BackgroundImageFix"/>
<feColorMatrix in="SourceAlpha" type="matrix" values="0 0 0 0 0 0 0 0 0 0 0 0 0 0 0 0 0 0 127 0" result="hardAlpha"/>
<feOffset dy="4"/>
<feGaussianBlur stdDeviation="2"/>
<feComposite in2="hardAlpha" operator="out"/>
<feColorMatrix type="matrix" values="0 0 0 0 0 0 0 0 0 0 0 0 0 0 0 0 0 0 0.25 0"/>
<feBlend mode="normal" in2="BackgroundImageFix" result="effect1_dropShadow_45_54"/>
<feBlend mode="normal" in="SourceGraphic" in2="effect1_dropShadow_45_54" result="shape"/>
</filter>
<filter id="filter11_d_45_54" x="146.13" y="9.33325" width="21.0623" height="24.3835" filterUnits="userSpaceOnUse" color-interpolation-filters="sRGB">
<feFlood flood-opacity="0" result="BackgroundImageFix"/>
<feColorMatrix in="SourceAlpha" type="matrix" values="0 0 0 0 0 0 0 0 0 0 0 0 0 0 0 0 0 0 127 0" result="hardAlpha"/>
<feOffset dy="4"/>
<feGaussianBlur stdDeviation="2"/>
<feComposite in2="hardAlpha" operator="out"/>
<feColorMatrix type="matrix" values="0 0 0 0 0 0 0 0 0 0 0 0 0 0 0 0 0 0 0.25 0"/>
<feBlend mode="normal" in2="BackgroundImageFix" result="effect1_dropShadow_45_54"/>
<feBlend mode="normal" in="SourceGraphic" in2="effect1_dropShadow_45_54" result="shape"/>
</filter>
</defs>
</svg>
