<svg width="30" height="30" viewBox="0 0 30 30" fill="none" xmlns="http://www.w3.org/2000/svg">
<path d="M28.8917 0.0312653C28.8831 0.033609 28.8744 0.0357184 28.8658 0.0382965C28.8637 0.038941 28.8615 0.0394098 28.8594 0.0400543L0.618751 8.80416C0.25131 8.91824 0.000645777 9.25785 1.24586e-06 9.64263C-0.000643285 10.0274 0.248849 10.3678 0.615997 10.4831L11.5054 13.902L9.44848 19.4203C9.32824 19.7429 9.40729 20.1059 9.65068 20.3494C9.89449 20.5932 10.2577 20.6716 10.5797 20.5516L16.0979 18.4947L19.517 29.3841C19.6321 29.7507 19.9719 30.0001 20.3561 30.0001C20.3565 30.0001 20.3571 30.0001 20.3575 30.0001C20.7422 29.9995 21.0819 29.7488 21.1959 29.3813L29.9599 1.14056C29.9605 1.13839 29.961 1.13617 29.9617 1.134C29.9642 1.12556 29.9663 1.11707 29.9686 1.10863C30.1463 0.450211 29.5407 -0.143813 28.8917 0.0312653ZM3.83063 9.64896L24.5867 3.20757L12.4839 12.3659L3.83063 9.64896ZM11.7686 18.2313L13.3877 13.8876L24.5871 5.41287L16.1123 16.6122L11.7686 18.2313ZM20.351 26.1694L17.634 17.5159L26.7923 5.41322L20.351 26.1694Z" fill="white"/>
</svg>
